<svg width="64" height="64" viewBox="0 0 64 64" fill="none" xmlns="http://www.w3.org/2000/svg">
<path d="M32 0C14.3287 0 0 14.3266 0 32C0 49.6734 14.3273 64 32 64C49.6741 64 64 49.6734 64 32C64 14.3266 49.6741 0 32 0ZM32 9.56837C37.8473 9.56837 42.5856 14.3083 42.5856 20.153C42.5856 25.9992 37.8473 30.7377 32 30.7377C26.1555 30.7377 21.4172 25.9992 21.4172 20.153C21.4172 14.3083 26.1555 9.56837 32 9.56837ZM31.993 55.6335C26.1611 55.6335 20.8198 53.5095 16.7 49.9939C15.6964 49.1379 15.1173 47.8826 15.1173 46.5655C15.1173 40.6378 19.9146 35.8937 25.8435 35.8937H38.1594C44.0896 35.8937 48.8687 40.6378 48.8687 46.5655C48.8687 47.884 48.2924 49.1365 47.2874 49.9925C43.1689 53.5095 37.8262 55.6335 31.993 55.6335Z" fill="white"/>
</svg>
